<?xml version="1.0" encoding="utf-8"?>
<!-- Generated by IcoMoon.io -->
<!DOCTYPE svg PUBLIC "-//W3C//DTD SVG 1.1//EN" "http://www.w3.org/Graphics/SVG/1.1/DTD/svg11.dtd">
<svg version="1.1" xmlns="http://www.w3.org/2000/svg" xmlns:xlink="http://www.w3.org/1999/xlink" width="14" height="14" viewBox="0 0 14 14">
<path fill="#fff" d="M2.926 6.426h8.148l-0.875-2.625h-6.398zM10.199 9.324c0.492 0 0.875-0.383 0.875-0.875s-0.383-0.875-0.875-0.875-0.875 0.383-0.875 0.875 0.383 0.875 0.875 0.875zM3.801 9.324c0.492 0 0.875-0.383 0.875-0.875s-0.383-0.875-0.875-0.875-0.875 0.383-0.875 0.875 0.383 0.875 0.875 0.875zM11.047 3.5l1.203 3.5v4.676c0 0.328-0.246 0.574-0.574 0.574h-0.602c-0.328 0-0.574-0.246-0.574-0.574v-0.602h-7v0.602c0 0.328-0.246 0.574-0.574 0.574h-0.602c-0.328 0-0.574-0.246-0.574-0.574v-4.676l1.203-3.5c0.109-0.355 0.465-0.574 0.848-0.574h6.398c0.383 0 0.738 0.219 0.848 0.574z"></path>
</svg>
