<!-- Generated by IcoMoon.io -->
<svg version="1.1" xmlns="http://www.w3.org/2000/svg" width="14" height="14" viewBox="0 0 14 14">
<title>earth</title>
<path fill="#fff" d="M7 0c-3.866 0-7 3.134-7 7s3.134 7 7 7 7-3.134 7-7-3.134-7-7-7zM7 13.125c-0.861 0-1.68-0.178-2.423-0.498l3.188-3.586c0.071-0.080 0.11-0.184 0.11-0.291v-1.313c0-0.242-0.196-0.438-0.438-0.438-1.545 0-3.175-1.606-3.191-1.622-0.082-0.082-0.193-0.128-0.309-0.128h-1.75c-0.242 0-0.438 0.196-0.438 0.438v2.625c0 0.166 0.094 0.317 0.242 0.391l1.508 0.754v2.569c-1.587-1.107-2.625-2.945-2.625-5.027 0-0.939 0.212-1.829 0.59-2.625h1.598c0.116 0 0.227-0.046 0.309-0.128l1.75-1.75c0.082-0.082 0.128-0.193 0.128-0.309v-1.058c0.555-0.165 1.142-0.254 1.75-0.254 0.963 0 1.873 0.222 2.684 0.618-0.057 0.048-0.112 0.098-0.165 0.151-0.496 0.496-0.769 1.155-0.769 1.856s0.273 1.36 0.769 1.856c0.498 0.498 1.165 0.769 1.854 0.769 0.043 0 0.087-0.001 0.13-0.003 0.189 0.708 0.53 2.552-0.115 5.091-0.006 0.024-0.010 0.048-0.012 0.071-1.112 1.136-2.662 1.841-4.377 1.841z"></path>
</svg>
