<!-- Generated by IcoMoon.io -->
<svg version="1.1" xmlns="http://www.w3.org/2000/svg" width="14" height="14" viewBox="0 0 14 14">
<title>twitter</title>
<path fill="#fff" d="M14 3.095c-0.514 0.23-1.069 0.383-1.649 0.451 0.593-0.355 1.047-0.919 1.263-1.589-0.555 0.328-1.17 0.569-1.824 0.697-0.525-0.558-1.271-0.905-2.097-0.905-1.586 0-2.871 1.285-2.871 2.871 0 0.224 0.025 0.443 0.074 0.654-2.387-0.12-4.504-1.263-5.92-3.002-0.246 0.424-0.388 0.919-0.388 1.444 0 0.995 0.506 1.876 1.277 2.39-0.47-0.014-0.913-0.145-1.302-0.358 0 0.011 0 0.025 0 0.036 0 1.392 0.99 2.554 2.305 2.816-0.241 0.066-0.495 0.101-0.757 0.101-0.186 0-0.364-0.019-0.541-0.052 0.366 1.14 1.427 1.971 2.682 1.996-0.984 0.771-2.22 1.23-3.568 1.23-0.232 0-0.459-0.014-0.686-0.041 1.274 0.818 2.784 1.291 4.405 1.291 5.283 0 8.173-4.378 8.173-8.173 0-0.126-0.003-0.249-0.008-0.372 0.561-0.402 1.047-0.908 1.433-1.485z"></path>
</svg>
