<?xml version="1.0" encoding="iso-8859-1"?>
<!-- Generator: Adobe Illustrator 19.0.0, SVG Export Plug-In . SVG Version: 6.00 Build 0)  -->
<svg version="1.1" id="Capa_1" xmlns="http://www.w3.org/2000/svg" xmlns:xlink="http://www.w3.org/1999/xlink" x="0px" y="0px"
	 viewBox="0 0 512 512" style="enable-background:new 0 0 512 512;" xml:space="preserve">
<path style="fill:#3EAF91;" d="M442.468,49.453V28.792c0-5.666-4.636-10.302-10.302-10.302H251.347
	c-5.665,0-10.301,4.636-10.301,10.302v20.66L442.468,49.453z"/>
<path style="opacity:0.1;fill:#231F20;enable-background:new    ;" d="M269.393,49.452v-20.66c0-5.666,4.636-10.302,10.302-10.302
	h-28.348c-5.665,0-10.301,4.636-10.301,10.302v20.66H269.393z"/>
<path style="fill:#FFBB4A;" d="M497.022,86l0.001-31.637c0-5.666-4.637-10.302-10.303-10.302l-289.93-0.001
	c-5.666,0-10.302,4.636-10.302,10.302V86H497.022z"/>
<path style="opacity:0.1;fill:#231F20;enable-background:new    ;" d="M224.298,44.061H196.79c-5.666,0-10.302,4.636-10.302,10.302
	V86H214V54.361C214,48.696,218.634,44.062,224.298,44.061z"/>
<path style="fill:#FFBB4A;" d="M379.942,433.361c0-31.011,25.14-56.149,56.151-56.149c9.36,0,18.178,2.303,25.938,6.354
	l26.892-265.343c0.285-2.819-1.799-5.125-4.632-5.125h-290.44c-2.833,0-4.987,2.312-4.786,5.138l25.583,360.643
	c0.201,2.826,2.683,5.139,5.516,5.139h191.685C392.976,474.969,379.942,455.688,379.942,433.361z"/>
<path style="opacity:0.1;fill:#231F20;enable-background:new    ;" d="M245.425,478.879l-25.583-360.643
	c-0.2-2.826,1.954-5.138,4.787-5.138h-30.777c-2.833,0-4.987,2.312-4.786,5.138l25.583,360.643c0.201,2.826,2.683,5.139,5.516,5.139
	h30.777C248.107,484.018,245.626,481.705,245.425,478.879z"/>
<path style="fill:#FF9F3D;" d="M512,117.973c0,2.833-2.318,5.151-5.15,5.151H171.293c-2.833,0-5.151-2.318-5.151-5.151V85.669
	c0-2.833,2.318-5.151,5.151-5.151H506.85c2.832,0,5.15,2.318,5.15,5.151V117.973z"/>
<path style="opacity:0.1;fill:#231F20;enable-background:new    ;" d="M196.533,117.973V85.669c0-2.833,2.318-5.151,5.151-5.151
	h-30.391c-2.833,0-5.151,2.318-5.151,5.151v32.304c0,2.833,2.318,5.151,5.151,5.151h30.391
	C198.851,123.124,196.533,120.806,196.533,117.973z"/>
<path style="fill:#3EAF91;" d="M496.241,433.361c0,33.218-26.931,60.148-60.147,60.148c-33.221,0-60.151-26.931-60.151-60.148
	c0-33.22,26.931-60.149,60.151-60.149C469.31,373.212,496.241,400.142,496.241,433.361z"/>
<g>
	<circle style="fill:#86D5B5;" cx="436.09" cy="433.36" r="22.555"/>
	<path style="fill:#86D5B5;" d="M167.683,170.001h-82.34c-2.833,0-3.992,2.007-2.576,4.46l29.88,51.753h27.73l29.881-51.753
		C171.675,172.008,170.516,170.001,167.683,170.001z"/>
</g>
<g>
	<path style="fill:#3EAF91;" d="M124.039,226.214l-5.262-51.09c-0.291-2.817-2.846-5.123-5.679-5.123H85.343
		c-2.833,0-3.992,2.007-2.576,4.46l29.88,51.753L124.039,226.214L124.039,226.214z"/>
	<path style="fill:#3EAF91;" d="M22.015,484.018c-4.917,0-9.375-2.906-11.355-7.41C3.588,460.521,0,443.4,0,425.723v-39.691
		c0-69.76,56.754-126.513,126.51-126.513c69.761,0,126.515,56.753,126.515,126.513v39.691c0,17.678-3.588,34.798-10.664,50.885
		c-1.977,4.504-6.435,7.41-11.351,7.41H22.015z"/>
</g>
<path style="opacity:0.1;fill:#231F20;enable-background:new    ;" d="M38.989,476.607C31.919,460.52,28.33,443.4,28.33,425.722
	v-39.691c0-64.971,49.232-118.65,112.346-125.715c-4.652-0.522-9.377-0.798-14.166-0.798C56.754,259.52,0,316.273,0,386.033v39.691
	c0,17.678,3.588,34.798,10.659,50.885c1.98,4.504,6.439,7.41,11.355,7.41h28.33C45.428,484.018,40.97,481.111,38.989,476.607z"/>
<path style="fill:#3EAF91;" d="M159.567,241.001v-15.228c0-2.833-2.318-5.15-5.151-5.15h-55.81c-2.833,0-5.151,2.317-5.151,5.15
	v15.228H159.567z"/>
<path style="fill:#86D5B5;" d="M176.147,265.565c0.729,2.737-0.993,4.976-3.826,4.976H80.704c-2.833,0-4.528-2.232-3.766-4.961
	l5.69-20.378c0.762-2.729,3.703-4.961,6.536-4.961h75.091c2.833,0,5.747,2.24,6.476,4.978L176.147,265.565z"/>
<path style="opacity:0.1;fill:#231F20;enable-background:new    ;" d="M105.115,265.58l5.689-20.378
	c0.762-2.729,3.703-4.961,6.536-4.961H89.164c-2.833,0-5.774,2.232-6.536,4.961l-5.69,20.378c-0.762,2.729,0.933,4.961,3.766,4.961
	h28.177C106.048,270.541,104.353,268.309,105.115,265.58z"/>
<g>
	<path style="fill:#CB7C52;" d="M398.487,280.342c-3.624-2.004-8.189-0.691-10.193,2.934c-9.573,17.311-27.797,28.065-47.559,28.065
		c-27.299,0-49.95-20.249-53.743-46.514l0.813,0.814c1.465,1.464,3.385,2.197,5.304,2.197c1.919,0,3.839-0.732,5.304-2.197
		c2.929-2.929,2.929-7.678,0-10.606l-13.907-13.907c-2.93-2.929-7.678-2.929-10.608,0l-13.906,13.907
		c-2.93,2.929-2.93,7.678,0,10.606c2.928,2.929,7.677,2.929,10.606,0l1.224-1.223c3.7,34.756,33.19,61.923,68.913,61.923
		c25.218,0,48.472-13.72,60.685-35.806C403.425,286.91,402.112,282.347,398.487,280.342z"/>
	<path style="fill:#CB7C52;" d="M420.803,244.773c-2.928-2.929-7.677-2.928-10.606,0l-1.066,1.067
		c-5.368-32.914-33.987-58.12-68.395-58.12c-24.483,0-46.67,12.521-59.35,33.495c-2.143,3.545-1.007,8.155,2.538,10.298
		c3.543,2.143,8.155,1.007,10.298-2.538c9.939-16.44,27.328-26.255,46.514-26.255c26.031,0,47.833,18.412,53.093,42.894l-0.84-0.84
		c-2.929-2.929-7.678-2.931-10.607-0.001c-2.93,2.929-2.93,7.678-0.001,10.606l13.907,13.909c1.406,1.407,3.314,2.197,5.304,2.197
		s3.897-0.791,5.304-2.197l13.908-13.909C423.732,252.451,423.732,247.702,420.803,244.773z"/>
</g>
<g>
</g>
<g>
</g>
<g>
</g>
<g>
</g>
<g>
</g>
<g>
</g>
<g>
</g>
<g>
</g>
<g>
</g>
<g>
</g>
<g>
</g>
<g>
</g>
<g>
</g>
<g>
</g>
<g>
</g>
</svg>
