<?xml version="1.0" encoding="iso-8859-1"?>
<!-- Generator: Adobe Illustrator 19.0.0, SVG Export Plug-In . SVG Version: 6.00 Build 0)  -->
<svg version="1.1" id="Layer_1" xmlns="http://www.w3.org/2000/svg" xmlns:xlink="http://www.w3.org/1999/xlink" x="0px" y="0px"
	 viewBox="0 0 512.002 512.002" style="enable-background:new 0 0 512.002 512.002;" xml:space="preserve">
<path style="fill:#F8DF70;" d="M330.852,386.144c0-89.182-54.455-101.505-54.455-101.505l-0.007-98.619
	c78.678,0,147.914,51.92,169.943,127.45l21.203,72.673H330.852z"/>
<path style="fill:#E5CD65;" d="M388.749,362.159c-4.718,0-8.543-3.825-8.543-8.543c0-47.432-50.073-79.059-50.577-79.374
	c-4.01-2.488-5.242-7.755-2.753-11.763c2.489-4.01,7.755-5.242,11.763-2.753c0.599,0.371,14.838,9.288,29.134,25.062
	c19.312,21.31,29.521,45.111,29.521,68.828C397.293,358.334,393.468,362.159,388.749,362.159z"/>
<polyline style="fill:#FD6568;" points="7.404,288.766 218.969,288.766 218.969,135.037 7.404,135.037 "/>
<g>
	<polyline style="fill:#E04F56;" points="7.404,288.766 218.969,288.766 218.969,262.526 7.404,262.526 	"/>
	<rect x="217.26" y="113.318" style="fill:#E04F56;" width="60.278" height="197.178"/>
</g>
<rect x="217.26" y="113.318" style="fill:#FD6568;" width="60.278" height="126.998"/>
<rect y="383.876" style="fill:#E5CD65;" width="512.002" height="14.808"/>
<g>
</g>
<g>
</g>
<g>
</g>
<g>
</g>
<g>
</g>
<g>
</g>
<g>
</g>
<g>
</g>
<g>
</g>
<g>
</g>
<g>
</g>
<g>
</g>
<g>
</g>
<g>
</g>
<g>
</g>
</svg>
