<?xml version="1.0" encoding="utf-8"?>
<!-- Generated by IcoMoon.io -->
<!DOCTYPE svg PUBLIC "-//W3C//DTD SVG 1.1//EN" "http://www.w3.org/Graphics/SVG/1.1/DTD/svg11.dtd">
<svg version="1.1" xmlns="http://www.w3.org/2000/svg" xmlns:xlink="http://www.w3.org/1999/xlink" width="14" height="14" viewBox="0 0 14 14">
<path fill="#fff" d="M11.821 6.469c-0.899-2.508-2.804-4.76-4.821-6.469-2.017 1.709-3.922 3.961-4.821 6.469-0.556 1.551-0.611 3.234 0.172 4.722 0.9 1.711 2.716 2.809 4.649 2.809s3.749-1.098 4.649-2.809c0.783-1.488 0.728-3.171 0.172-4.722zM10.1 10.376c-0.599 1.138-1.816 1.874-3.1 1.874-0.754 0-1.484-0.253-2.080-0.693 0.181 0.024 0.364 0.036 0.548 0.036 1.605 0 3.126-0.919 3.875-2.341 0.614-1.166 0.56-2.377 0.327-3.341 0.199 0.385 0.368 0.768 0.504 1.148 0.309 0.862 0.547 2.137-0.073 3.317z"></path>
</svg>
