<?xml version="1.0" encoding="utf-8"?>
<!-- Generated by IcoMoon.io -->
<!DOCTYPE svg PUBLIC "-//W3C//DTD SVG 1.1//EN" "http://www.w3.org/Graphics/SVG/1.1/DTD/svg11.dtd">
<svg version="1.1" xmlns="http://www.w3.org/2000/svg" xmlns:xlink="http://www.w3.org/1999/xlink" width="14" height="14" viewBox="0 0 14 14">
<path fill="#fff" d="M7.764 6.132c-0.547 0.246-1.76-0.357-1.76-0.357-1.421-0.852 0.534 2.657 0.534 2.657s0.041 1.095 0.287 1.232c2.051-2.871 1.486-3.778 0.939-3.532zM7.026 8.855c-0.166 0-0.863-2.091-0.78-2.528 0.547 0.055 1.054 0.261 1.355 0.097 0.847-0.384-0.383 2.431-0.574 2.431zM8.729 10.477c0.050-3.196 1.77-4.426 1.77-6.329 0-1.624-1.111-3.697-3.443-3.697s-3.555 1.983-3.555 3.712c0 1.941 1.747 3.16 1.747 6.334h1.769c0 0 1.662-0.020 1.712-0.020zM5.604 10.071c0-2.962-1.692-4.101-1.692-5.912 0-1.614 1.098-3.306 3.138-3.306s3.040 1.776 3.040 3.292c0 1.776-1.669 2.95-1.713 5.933-0.045 0-1.361-0.007-1.361-0.007h-1.411zM8.533 10.944h-3.063c-0.121 0-0.219 0.098-0.219 0.219s0.098 0.219 0.219 0.219h3.063c0.12 0 0.219-0.098 0.219-0.219s-0.098-0.219-0.219-0.219zM8.533 11.819h-3.063c-0.121 0-0.219 0.098-0.219 0.219s0.098 0.219 0.219 0.219h3.063c0.12 0 0.219-0.098 0.219-0.219s-0.098-0.219-0.219-0.219zM5.686 12.706c0 0 0 0.146 0 0.394s0.194 0.448 0.434 0.448h1.764c0.24 0 0.434-0.201 0.434-0.448s-0.027-0.394-0.027-0.394h-2.604z"></path>
</svg>
